<svg width="343" height="376" viewBox="0 0 343 376" fill="none" xmlns="http://www.w3.org/2000/svg">
<path d="M117.916 31.6563C141.666 -9.85022 201.645 -9.67201 225.512 31.7674V31.7674C236.61 51.0369 257.286 63 279.523 63V63C327.727 63 358.041 115.325 334.083 157.152V157.152C322.994 176.511 322.992 200.381 334.147 219.701V219.701C358.175 261.32 328.339 313.382 280.283 313.69L278.677 313.7C256.664 313.841 236.377 325.641 225.37 344.705V344.705C201.466 386.108 141.544 385.793 117.746 344.329V344.329C106.653 325 85.9021 313 63.615 313V313C15.609 313 -14.675 260.94 9.48798 219.458V219.458C20.7489 200.126 20.7432 176.2 9.50722 156.853V156.853C-14.6752 115.215 15.884 62.909 64.0352 62.837V62.837C86.2187 62.8038 106.899 50.9105 117.916 31.6563V31.6563Z" fill="url(#paint0_linear_49_2)"/>
<defs>
<linearGradient id="paint0_linear_49_2" x1="65.019" y1="2.50002" x2="328.519" y2="319" gradientUnits="userSpaceOnUse">
<stop stop-color="#F2F2F2"/>
<stop offset="1" stop-color="#999"/>
</linearGradient>
</defs>
</svg>
