<svg width="447" height="450" viewBox="0 0 447 450" fill="none" xmlns="http://www.w3.org/2000/svg">
<path d="M201.784 16.6064C213.454 -3.20168 241.458 -4.91443 255.455 13.3239L258.838 17.7326C268.782 30.6904 286.176 35.3785 301.285 29.1733L304.732 27.7576C327.85 18.2637 353.57 33.7945 355.932 58.6739V58.6739C357.55 75.7149 370.58 89.4561 387.512 91.9755L389.356 92.2499C415.8 96.1847 430.829 124.65 419.164 148.706L416.344 154.521C408.646 170.397 414.51 189.523 429.784 198.355V198.355C451.265 210.776 452.384 241.378 431.868 255.335L429.192 257.155C414.115 267.411 409.309 287.601 417.891 303.691V303.691C429.825 326.064 416.007 353.839 390.883 357.279L388.236 357.641C370.928 360.01 357.533 373.989 355.903 391.382V391.382C353.552 416.456 327.694 432.175 304.352 422.718L299.659 420.817C283.576 414.301 265.124 419.743 255.15 433.944V433.944C240.748 454.451 210.62 455.194 195.224 435.422L193.756 433.536C182.823 419.494 163.619 414.689 147.285 421.754V421.754C123.855 431.888 96.8327 417.671 92.2803 392.553L91.4701 388.082C88.6099 372.301 76.0172 360.093 60.1545 357.724V357.724C35.1396 353.988 21.0664 326.793 32.1358 304.052V304.052C40.2043 287.476 35.2041 267.342 20.2024 256.626L17.4514 254.661C-3.93409 239.386 -5.96828 208.297 13.1192 190.232V190.232C24.7554 179.219 29.1554 162.49 24.3754 147.199L24.0223 146.069C16.3235 121.44 31.4535 95.5209 56.6851 90.1146L59.6211 89.4855C76.0319 85.9692 88.7543 72.9882 91.9399 56.51V56.51C96.8038 31.3496 122.936 16.4313 147.075 25.0343L162.953 30.6934C177.6 35.9135 193.891 30.0035 201.784 16.6064V16.6064Z" 
fill="url(#paint0_linear_71_23)"/>
<defs>
<linearGradient id="paint0_linear_71_23" x1="-24" y1="-25" x2="476" y2="475" gradientUnits="userSpaceOnUse">
<stop stop-color="#0E6BA8"/>
<stop offset="1" stop-color="#A6E1FA"/>
</linearGradient>
</defs>
</svg>
