<svg width="226" height="200" viewBox="0 0 226 200" fill="none" xmlns="http://www.w3.org/2000/svg">
<path fill-rule="evenodd" clip-rule="evenodd" d="M71.8119 0H0L69.3776 200L107.5 100.5L71.8119 0ZM176.738 0H142.016V97.4755H176.738H177.056V97.4744C189.867 97.3908 202.136 92.2655 211.201 83.2005C220.341 74.0604 225.475 61.6638 225.475 48.7377C225.475 35.8117 220.341 23.4151 211.201 14.275C202.136 5.20996 189.867 0.0846606 177.056 0.00103957V0H176.738ZM142.016 102.525H176.738H177.056V102.526C189.867 102.609 202.136 107.734 211.201 116.799C220.341 125.94 225.475 138.336 225.475 151.262C225.475 164.188 220.341 176.585 211.201 185.725C202.136 194.79 189.867 199.915 177.056 199.999V200H176.738H142.016V102.525Z" fill="url(#paint0_linear_92_51)"/>
<defs>
<linearGradient id="paint0_linear_92_51" x1="12.5" y1="-2.5" x2="232" y2="200.5" gradientUnits="userSpaceOnUse">
<stop stop-color="#EAEAEA"/>
<stop offset="1" stop-color="#0480EF"/>
</linearGradient>
</defs>
</svg>
