<svg width="226" height="200" viewBox="0 0 226 200" fill="none" xmlns="http://www.w3.org/2000/svg">
<path d="M71.8119 0H0L69.3776 200L107.5 100.5L71.8119 0Z" fill="#a6e1fa"/>
<path d="M142.016 0H177.056V97.4755H142.016V0Z" fill="#a6e1fa"/>
<path d="M176.738 0C189.664 1.54142e-07 202.06 5.13485 211.201 14.275C220.341 23.4151 225.475 35.8117 225.475 48.7377C225.475 61.6638 220.341 74.0604 211.201 83.2005C202.06 92.3406 189.664 97.4755 176.738 97.4755L176.738 48.7377L176.738 0Z" fill="#a6e1fa"/>
<path d="M142.016 102.525H177.056V200H142.016V102.525Z" fill="#a6e1fa"/>
<path d="M176.738 102.525C189.664 102.525 202.06 107.659 211.201 116.799C220.341 125.94 225.475 138.336 225.475 151.262C225.475 164.188 220.341 176.585 211.201 185.725C202.06 194.865 189.664 200 176.738 200L176.738 151.262L176.738 102.525Z" fill="#a6e1fa"/>
</svg>
